<svg xmlns="http://www.w3.org/2000/svg" viewBox="0 0 200 200" fill="none">
  <!-- Chibi Frieren for decorative use (footer, 404, etc.) -->
  <!-- Hair behind -->
  <path d="M70 90 C65 110, 60 140, 65 170 C66 175, 68 178, 70 175" stroke="#D5CDE0" stroke-width="20" fill="none" stroke-linecap="round"/>
  <path d="M130 90 C135 110, 140 140, 135 170 C134 175, 132 178, 130 175" stroke="#D5CDE0" stroke-width="20" fill="none" stroke-linecap="round"/>

  <!-- Body / Robe -->
  <path d="M80 105 C78 125, 76 145, 75 165 L125 165 C124 145, 122 125, 120 105 Z" fill="#FAFAFA" stroke="#D8D2C8" stroke-width="0.8"/>
  <!-- Gold trim -->
  <path d="M75 165 L125 165" stroke="#C9A84C" stroke-width="3"/>
  <path d="M80 105 L75 165" stroke="#C9A84C" stroke-width="1.5"/>
  <path d="M120 105 L125 165" stroke="#C9A84C" stroke-width="1.5"/>
  <!-- Cape -->
  <path d="M72 105 C80 100, 100 98, 120 100 L128 105 L130 135 C120 138, 100 140, 80 138 L70 135 Z" fill="#FAFAFA" stroke="#C9A84C" stroke-width="1.5"/>
  <!-- Stripe peek -->
  <rect x="92" y="100" width="16" height="8" rx="1" fill="#2A2A3A"/>
  <line x1="92" y1="102" x2="108" y2="102" stroke="#E8E8E8" stroke-width="1.5"/>
  <line x1="92" y1="105" x2="108" y2="105" stroke="#E8E8E8" stroke-width="1.5"/>

  <!-- Face -->
  <circle cx="100" cy="78" r="30" fill="#F5DCC8"/>
  <!-- Ears -->
  <path d="M70 72 L52 60 L68 78" fill="#F5DCC8" stroke="#E8C8B0" stroke-width="0.8"/>
  <path d="M130 72 L148 60 L132 78" fill="#F5DCC8" stroke="#E8C8B0" stroke-width="0.8"/>
  <!-- Earrings -->
  <ellipse cx="57" cy="66" rx="2.5" ry="3.5" fill="#CC2222"/>
  <ellipse cx="143" cy="66" rx="2.5" ry="3.5" fill="#CC2222"/>
  <!-- Eyes -->
  <ellipse cx="90" cy="78" rx="8" ry="9" fill="#FFFFFF"/>
  <ellipse cx="110" cy="78" rx="8" ry="9" fill="#FFFFFF"/>
  <ellipse cx="91" cy="79" rx="6" ry="7" fill="#4ABFA0"/>
  <ellipse cx="111" cy="79" rx="6" ry="7" fill="#4ABFA0"/>
  <ellipse cx="92" cy="79" rx="3.5" ry="4.5" fill="#1A4A3A"/>
  <ellipse cx="112" cy="79" rx="3.5" ry="4.5" fill="#1A4A3A"/>
  <ellipse cx="94" cy="76" rx="2" ry="2.5" fill="#FFFFFF" opacity="0.8"/>
  <ellipse cx="114" cy="76" rx="2" ry="2.5" fill="#FFFFFF" opacity="0.8"/>
  <!-- Mouth -->
  <path d="M96 90 Q100 93, 104 90" stroke="#D4928A" stroke-width="1.2" fill="none"/>
  <!-- Hair -->
  <path d="M68 72 C62 50, 80 35, 100 33 C120 35, 138 50, 132 72" fill="#C8C0D0"/>
  <path d="M72 70 C75 52, 85 42, 95 48 L93 65" fill="#D5CDE0"/>
  <path d="M105 62 C108 42, 118 45, 125 55 L128 70" fill="#D5CDE0"/>
  <!-- Collar gem -->
  <circle cx="100" cy="100" r="3" fill="#CC2222" stroke="#C9A84C" stroke-width="1"/>
  <!-- Boots peek -->
  <rect x="82" y="165" width="14" height="10" rx="3" fill="#9A8462"/>
  <rect x="104" y="165" width="14" height="10" rx="3" fill="#9A8462"/>
</svg>
